<svg xmlns="http://www.w3.org/2000/svg" xmlns:xlink="http://www.w3.org/1999/xlink" width="713" height="713.312" viewBox="0 0 713 713.312">
  <defs>
    <filter id="Path_129" x="0" y="0" width="713" height="713.312" filterUnits="userSpaceOnUse">
      <feOffset dy="3" input="SourceAlpha"/>
      <feGaussianBlur stdDeviation="3" result="blur"/>
      <feFlood flood-opacity="0.2" result="color"/>
      <feComposite operator="out" in="SourceGraphic" in2="blur"/>
      <feComposite operator="in" in="color"/>
      <feComposite operator="in" in2="SourceGraphic"/>
    </filter>
    <filter id="Path_130" x="265.389" y="177.888" width="128.063" height="150.176" filterUnits="userSpaceOnUse">
      <feOffset dy="3" input="SourceAlpha"/>
      <feGaussianBlur stdDeviation="3" result="blur-2"/>
      <feFlood flood-opacity="0.2" result="color-2"/>
      <feComposite operator="out" in="SourceGraphic" in2="blur-2"/>
      <feComposite operator="in" in="color-2"/>
      <feComposite operator="in" in2="SourceGraphic"/>
    </filter>
  </defs>
  <g id="Group_1547" data-name="Group 1547" transform="translate(-118 -183)">
    <g data-type="innerShadowGroup">
      <path id="Path_129-2" data-name="Path 129" d="M-282.065,810.625C-477.874,811.893-640.793,649.2-638.283,449.1c2.4-191.587,160.96-355.2,363.129-351.719,191.142,3.3,349.929,159.7,349.843,356.853C74.6,654.137-88.638,812.012-282.065,810.625Zm82.627-544.639a30.947,30.947,0,0,1,3.459-.45c23.825-.864,47.675-1.307,71.465-2.712,11.135-.655,22.5-1.986,33.166-5.069,20.735-5.986,27.2-24.185,16.275-42.764-6.066-10.314-15.263-17.372-25.243-23.348-30.846-18.465-64.5-27.871-100.2-30.537-42.214-3.155-83.175,4.387-123.643,15.059-47.889,12.627-95.537,26.164-143.4,38.9-10.927,2.909-22.2,5.986-33.72,2.617a37.924,37.924,0,0,0-26.013,1.551,62.33,62.33,0,0,0-16.89,10.173c-10.433,9.248-10.708,21.62-1.4,32.136,9.767,11.033,22.313,17.768,36.145,22.179,25.13,8.019,51.044,9.769,77.214,9.229,2.628-.056,5.258-.007,7.925-.007a8.2,8.2,0,0,1-.023,1.962c-.371,1.127-.874,2.213-1.3,3.323-9.855,25.609-12.607,52.12-7.308,78.9,9.813,49.6,50.165,87.313,100.239,95.059,3,.465,5.987,1.081,10.376,1.882-2.51,1.19-3.511,1.886-4.616,2.157-24.786,6.025-49.425,12.851-74.445,17.668-14.591,2.809-29.794,2.531-44.737,3.386-13.232.757-22.739,7.615-24.173,19.27-3.527,28.713,7.445,49.013,39.913,53.5,17.008,2.352,33.994.847,50.9-1.692,2.9-.436,5.835-.711,8.752-1.062a25.7,25.7,0,0,1-5.481,5.787c-12.247,10.9-24.631,21.819-30.581,37.689-3.527,9.406-4.625,19.575,3.07,27.389,7.929,8.053,17.854,5.714,27.256,2.15,4.763-1.8,9.241-4.494,14.1-5.889,26.159-7.5,52.665-6.383,78.944-1.336,32.181,6.178,61.409,19.84,88.781,37.706,19.982,13.043,38.4,27.177,44.572,52.158,1.809,7.318,7.526,12.053,14.511,14.848a70.522,70.522,0,0,0,39.141,3.961c16.307-2.909,28.639-11.3,32.685-28.256,2.931-12.294-.341-24.045-5.946-35.084-9.34-18.4-24.029-32.09-40.111-44.349-27.11-20.665-57.035-36.535-88.075-50.326-29.227-12.987-59.478-22.654-91.332-26.7-6.469-.823-12.984-1.3-19.475-1.928a8.041,8.041,0,0,1,4.411-2.646c7.72-2.108,15.5-3.995,23.169-6.271,56.169-16.658,111.85-34.809,166.387-56.275,17.326-6.819,33.739-15.59,47.336-28.718,7.763-7.5,13.9-16.186,14.721-27.3,1.7-22.956-7.661-41.141-25.474-55.043-10.7-8.352-22.294-9.777-34.061-1.872-6.919,4.647-13.36,10.081-20.546,14.236-19.45,11.249-39.123,22.119-58.841,32.89-5.961,3.26-12.362,5.716-18.562,8.54a9.216,9.216,0,0,1,2.141-4.489A100.026,100.026,0,0,0-186.8,379.025c3.288-24.115-.735-47.2-10.9-69.214-2.089-4.523-3.638-8.274-.109-13.07,1.821-2.476,2.387-6.573,2.063-9.791C-196.435,280.11-198.078,273.366-199.438,265.985Z" transform="translate(756.312 85.678)" fill="#c1c1c1" style="mix-blend-mode: color-burn;isolation: isolate"/>
      <g transform="matrix(1, 0, 0, 1, 118, 183)" filter="url(#Path_129)" style="mix-blend-mode: color-burn;isolation: isolate">
        <path id="Path_129-3" data-name="Path 129" d="M-282.065,810.625C-477.874,811.893-640.793,649.2-638.283,449.1c2.4-191.587,160.96-355.2,363.129-351.719,191.142,3.3,349.929,159.7,349.843,356.853C74.6,654.137-88.638,812.012-282.065,810.625Zm82.627-544.639a30.947,30.947,0,0,1,3.459-.45c23.825-.864,47.675-1.307,71.465-2.712,11.135-.655,22.5-1.986,33.166-5.069,20.735-5.986,27.2-24.185,16.275-42.764-6.066-10.314-15.263-17.372-25.243-23.348-30.846-18.465-64.5-27.871-100.2-30.537-42.214-3.155-83.175,4.387-123.643,15.059-47.889,12.627-95.537,26.164-143.4,38.9-10.927,2.909-22.2,5.986-33.72,2.617a37.924,37.924,0,0,0-26.013,1.551,62.33,62.33,0,0,0-16.89,10.173c-10.433,9.248-10.708,21.62-1.4,32.136,9.767,11.033,22.313,17.768,36.145,22.179,25.13,8.019,51.044,9.769,77.214,9.229,2.628-.056,5.258-.007,7.925-.007a8.2,8.2,0,0,1-.023,1.962c-.371,1.127-.874,2.213-1.3,3.323-9.855,25.609-12.607,52.12-7.308,78.9,9.813,49.6,50.165,87.313,100.239,95.059,3,.465,5.987,1.081,10.376,1.882-2.51,1.19-3.511,1.886-4.616,2.157-24.786,6.025-49.425,12.851-74.445,17.668-14.591,2.809-29.794,2.531-44.737,3.386-13.232.757-22.739,7.615-24.173,19.27-3.527,28.713,7.445,49.013,39.913,53.5,17.008,2.352,33.994.847,50.9-1.692,2.9-.436,5.835-.711,8.752-1.062a25.7,25.7,0,0,1-5.481,5.787c-12.247,10.9-24.631,21.819-30.581,37.689-3.527,9.406-4.625,19.575,3.07,27.389,7.929,8.053,17.854,5.714,27.256,2.15,4.763-1.8,9.241-4.494,14.1-5.889,26.159-7.5,52.665-6.383,78.944-1.336,32.181,6.178,61.409,19.84,88.781,37.706,19.982,13.043,38.4,27.177,44.572,52.158,1.809,7.318,7.526,12.053,14.511,14.848a70.522,70.522,0,0,0,39.141,3.961c16.307-2.909,28.639-11.3,32.685-28.256,2.931-12.294-.341-24.045-5.946-35.084-9.34-18.4-24.029-32.09-40.111-44.349-27.11-20.665-57.035-36.535-88.075-50.326-29.227-12.987-59.478-22.654-91.332-26.7-6.469-.823-12.984-1.3-19.475-1.928a8.041,8.041,0,0,1,4.411-2.646c7.72-2.108,15.5-3.995,23.169-6.271,56.169-16.658,111.85-34.809,166.387-56.275,17.326-6.819,33.739-15.59,47.336-28.718,7.763-7.5,13.9-16.186,14.721-27.3,1.7-22.956-7.661-41.141-25.474-55.043-10.7-8.352-22.294-9.777-34.061-1.872-6.919,4.647-13.36,10.081-20.546,14.236-19.45,11.249-39.123,22.119-58.841,32.89-5.961,3.26-12.362,5.716-18.562,8.54a9.216,9.216,0,0,1,2.141-4.489A100.026,100.026,0,0,0-186.8,379.025c3.288-24.115-.735-47.2-10.9-69.214-2.089-4.523-3.638-8.274-.109-13.07,1.821-2.476,2.387-6.573,2.063-9.791C-196.435,280.11-198.078,273.366-199.438,265.985Z" transform="translate(638.31 -97.32)" fill="#fff"/>
      </g>
    </g>
    <g data-type="innerShadowGroup">
      <path id="Path_130-2" data-name="Path 130" d="M-527.973,247.525c.5-17.574,3.6-34.452,12.693-49.9,8.133-13.813,19.238-22.338,35.9-23.176,9.487-.474,18.918-2.283,28.337-3.746,10.659-1.658,19.425,3.734,28.684,7.342a3.407,3.407,0,0,1,1.626,1.828c5.02,12.99,10.611,25.8,14.81,39.055,7.64,24.11,6.279,47.8-6.5,70.085-12.522,21.841-30.985,33.644-56.775,31.253-26.8-2.486-44.734-17.213-53.687-42.195-3.443-9.611-4.346-20.132-6.407-30.239Z" transform="translate(912.684 190.493)" fill="#c1c1c1" style="mix-blend-mode: color-burn;isolation: isolate"/>
      <g transform="matrix(1, 0, 0, 1, 118, 183)" filter="url(#Path_130)" style="mix-blend-mode: color-burn;isolation: isolate">
        <path id="Path_130-3" data-name="Path 130" d="M-527.973,247.525c.5-17.574,3.6-34.452,12.693-49.9,8.133-13.813,19.238-22.338,35.9-23.176,9.487-.474,18.918-2.283,28.337-3.746,10.659-1.658,19.425,3.734,28.684,7.342a3.407,3.407,0,0,1,1.626,1.828c5.02,12.99,10.611,25.8,14.81,39.055,7.64,24.11,6.279,47.8-6.5,70.085-12.522,21.841-30.985,33.644-56.775,31.253-26.8-2.486-44.734-17.213-53.687-42.195-3.443-9.611-4.346-20.132-6.407-30.239Z" transform="translate(794.68 7.49)" fill="#fff"/>
      </g>
    </g>
  </g>
</svg>
